<svg width="2560" height="1495" viewBox="0 0 2560 1495" fill="none" xmlns="http://www.w3.org/2000/svg">
<path fill-rule="evenodd" clip-rule="evenodd" d="M0 0L805.395 0C805.395 0 694 0 834 230.824C915.574 365.32 1045 513.536 1045 652.025C1045 806.308 951.878 902.632 904.5 1091.56C858.869 1273.53 1011.65 1468 1011.65 1468H0V0Z" fill="#8BC34A" fill-opacity="0.15"/>
<path fill-rule="evenodd" clip-rule="evenodd" d="M3127.04 1592.13L2159.94 1484.92C2159.94 1484.92 2564.24 877.933 2397.28 638.229C2300.43 499.192 2180.6 403.613 2177.72 238.914C2174.52 55.4312 2320.66 -30.7508 2364.6 -256.273C2406.92 -473.483 2252.2 -724.954 2252.2 -724.954L3274.23 -742.794L3127.04 1592.13Z" fill="#8BC34A" fill-opacity="0.15"/>
<path fill-rule="evenodd" clip-rule="evenodd" d="M-3 1301.3C-3 1301.3 61.7266 1446.8 342.5 1446.8C623.273 1446.8 698.018 1238.44 1013 1264.8C1327.98 1291.16 1493.26 1426.49 1765.5 1446.8C2295 1486.3 2668 1354.3 2668 1354.3L2639.5 1495L-32 1468L-3 1301.3Z" fill="white"/>
</svg>
