<svg width="408" height="75" viewBox="0 0 408 75" fill="none" xmlns="http://www.w3.org/2000/svg">
<circle cx="37.5" cy="37.5" r="37.5" fill="#9C27B0"/>
<path fill-rule="evenodd" clip-rule="evenodd" d="M41.3333 28.6667V23.7057C41.3333 21.4661 41.8479 20.3333 45.4635 20.3333H50V12H42.4302C33.1542 12 30.0938 16.0885 30.0938 23.1068V28.6667H24V37H30.0938V62H41.3333V37H48.9708L50 28.6667H41.3333V28.6667Z" fill="white"/>
<circle cx="148.5" cy="37.5" r="37.5" fill="#9C27B0"/>
<path fill-rule="evenodd" clip-rule="evenodd" d="M164.121 20H134.076C132.435 20 131 21.1816 131 22.8039V52.9148C131 54.5465 132.435 56 134.076 56H164.112C165.762 56 167 54.5371 167 52.9148V22.8039C167.009 21.1816 165.762 20 164.121 20V20Z" fill="black"/>
<path fill-rule="evenodd" clip-rule="evenodd" d="M142.159 50.0081H137.002V33.9727H142.159V50.0081V50.0081Z" fill="black"/>
<path fill-rule="evenodd" clip-rule="evenodd" d="M139.759 31.5346H139.721C138.071 31.5346 137.002 30.3062 137.002 28.7683C137.002 27.2023 138.099 26.002 139.787 26.002C141.475 26.002 142.506 27.1929 142.544 28.7683C142.544 30.3062 141.475 31.5346 139.759 31.5346V31.5346Z" fill="black"/>
<path fill-rule="evenodd" clip-rule="evenodd" d="M161.008 50.0082H155.85V41.2403C155.85 39.1397 155.1 37.705 153.234 37.705C151.808 37.705 150.965 38.6709 150.589 39.6086C150.449 39.9462 150.411 40.4057 150.411 40.8746V50.0082H145.254V33.9728H150.411V36.2046C151.161 35.1356 152.334 33.5977 155.062 33.5977C158.448 33.5977 161.008 35.8295 161.008 40.6401V50.0082V50.0082Z" fill="black"/>
<circle cx="259.5" cy="37.5" r="37.5" fill="#9C27B0"/>
<path fill-rule="evenodd" clip-rule="evenodd" d="M280 25.7917C278.525 26.4333 276.949 26.8667 275.287 27.0667C276.982 26.0667 278.288 24.4833 278.898 22.6C277.313 23.525 275.558 24.2 273.685 24.5583C272.185 22.9833 270.049 22 267.692 22C263.157 22 259.487 25.6167 259.487 30.075C259.487 30.7083 259.555 31.325 259.699 31.9167C252.876 31.5833 246.823 28.3667 242.78 23.475C242.077 24.6667 241.67 26.0583 241.67 27.5333C241.67 30.3333 243.128 32.8083 245.332 34.2583C243.975 34.225 242.704 33.8583 241.602 33.25C241.602 33.2833 241.602 33.3167 241.602 33.35C241.602 37.2667 244.433 40.525 248.188 41.2667C247.502 41.45 246.773 41.55 246.027 41.55C245.501 41.55 244.984 41.5 244.484 41.4C245.527 44.6083 248.561 46.9417 252.155 47.0083C249.349 49.175 245.806 50.4667 241.958 50.4667C241.297 50.4667 240.644 50.425 240 50.35C243.619 52.6667 247.934 54 252.562 54C267.675 54 275.931 41.6917 275.931 31.0167C275.931 30.6667 275.923 30.3167 275.906 29.975C277.508 28.8333 278.898 27.4167 280 25.7917V25.7917Z" fill="white"/>
<circle cx="370.5" cy="37.5" r="37.5" fill="#9C27B0"/>
<circle cx="370.5" cy="38" r="7" fill="white"/>
<path fill-rule="evenodd" clip-rule="evenodd" d="M364.255 30.6761C366.068 28.8629 368.479 27.8537 371.043 27.8537C373.607 27.8537 376.018 28.8683 377.831 30.6815C378.981 31.8319 379.803 33.2144 380.251 34.7573H387.457V25.0715C387.457 22.7993 385.701 21.043 383.429 21.043H358.743C356.471 21.043 354.543 22.7993 354.543 25.0715V34.7573H361.835C362.282 33.2144 363.104 31.8266 364.255 30.6761V30.6761Z" fill="black"/>
<path fill-rule="evenodd" clip-rule="evenodd" d="M384.714 28.1747C384.714 28.7806 384.223 29.2718 383.617 29.2718H380.326C379.72 29.2718 379.229 28.7807 379.229 28.1747V24.8833C379.229 24.2774 379.72 23.7861 380.326 23.7861H383.617C384.223 23.7861 384.714 24.2773 384.714 24.8833V28.1747V28.1747Z" fill="black"/>
<path fill-rule="evenodd" clip-rule="evenodd" d="M377.831 44.2525C376.018 46.0657 373.607 47.0535 371.043 47.0535C368.479 47.0535 366.068 46.0711 364.255 44.2579C362.445 42.448 361.447 39.9857 361.443 37.5H354.543V49.7571C354.543 52.0294 356.471 53.9571 358.743 53.9571H383.429C385.701 53.9571 387.457 52.0294 387.457 49.7571V37.5H380.643C380.639 39.9857 379.641 42.4426 377.831 44.2525V44.2525Z" fill="white"/>
</svg>
