<svg width="75" height="75" viewBox="0 0 75 75" fill="none" xmlns="http://www.w3.org/2000/svg">
<circle cx="37.5" cy="37.5" r="37.5" fill="#9C27B0"/>
<path fill-rule="evenodd" clip-rule="evenodd" d="M31.1592 50.0081H26.0016V33.9727H31.1592V50.0081V50.0081Z" fill="black"/>
<path fill-rule="evenodd" clip-rule="evenodd" d="M28.7586 31.5346H28.721C27.0706 31.5346 26.0016 30.3062 26.0016 28.7683C26.0016 27.2023 27.0987 26.002 28.7867 26.002C30.4746 26.002 31.5061 27.1929 31.5436 28.7683C31.5436 30.3062 30.4746 31.5346 28.7586 31.5346V31.5346Z" fill="black"/>
<path fill-rule="evenodd" clip-rule="evenodd" d="M50.0077 50.0082H44.8502V41.2403C44.8502 39.1397 44.1 37.705 42.2339 37.705C40.8085 37.705 39.9645 38.6709 39.5894 39.6086C39.4488 39.9462 39.4112 40.4057 39.4112 40.8746V50.0082H34.2537V33.9728H39.4112V36.2046C40.1614 35.1356 41.3336 33.5977 44.0625 33.5977C47.4477 33.5977 50.0077 35.8295 50.0077 40.6401V50.0082V50.0082Z" fill="black"/>
</svg>
