<svg width="47" height="35" viewBox="0 0 47 35" fill="none" xmlns="http://www.w3.org/2000/svg">
<path fill-rule="evenodd" clip-rule="evenodd" d="M0.939992 12.0391L21.5956 21.826C22.1327 22.0776 22.853 22.2094 23.561 22.2094C24.2691 22.2094 24.9893 22.0776 25.5265 21.826L46.1821 12.0391C47.2686 11.524 47.2686 10.6854 46.1821 10.1703L25.5265 0.383333C24.9893 0.131771 24.2691 0 23.561 0C22.853 0 22.1327 0.131771 21.5956 0.383333L0.939992 10.1703C-0.146501 10.6854 -0.146501 11.524 0.939992 12.0391Z" fill="black" fill-opacity="0.54"/>
<path fill-rule="evenodd" clip-rule="evenodd" d="M46.1821 22.0656C46.1821 22.0656 42.4099 20.2807 41.9093 20.0412C41.4088 19.8016 41.2745 19.8135 40.7496 20.0531C40.2247 20.2927 25.5143 27.2646 25.5143 27.2646C24.9649 27.5162 24.2569 27.6479 23.5488 27.6479C22.8408 27.6479 22.1205 27.5162 21.5834 27.2646C21.5834 27.2646 7.26363 20.4844 6.5922 20.1609C5.85973 19.8135 5.6522 19.8135 4.99298 20.125C4.30934 20.4484 0.915578 22.0537 0.915578 22.0537C-0.170915 22.5688 -0.170915 23.4073 0.915578 23.9224L21.5712 33.7094C22.1083 33.9609 22.8286 34.0927 23.5366 34.0927C24.2447 34.0927 24.9649 33.9609 25.5021 33.7094L46.1577 23.9224C47.2686 23.4193 47.2686 22.5807 46.1821 22.0656Z" fill="black" fill-opacity="0.54"/>
</svg>
