<svg width="41" height="48" viewBox="0 0 41 48" fill="none" xmlns="http://www.w3.org/2000/svg">
<path fill-rule="evenodd" clip-rule="evenodd" d="M40.625 47.8756C40.625 47.8756 40.625 46.1223 40.6 44.0953C40.575 41.7824 40.5125 39.1212 40.3875 38.3254C40.2 37.144 38.6 35.5648 31.8125 32.9907C30.875 32.6425 30.0875 32.3565 29.4 32.1078C25.2375 30.6404 25.5375 30.1554 25.5375 26.1389C25.5375 23.1171 27.0375 25.0819 27.9875 19.3492C28.3625 17.086 28.6625 18.5907 29.45 14.972C29.875 13.0819 29.1625 12.9326 29.25 12.0249C29.3375 11.1171 29.425 10.3088 29.575 8.45596C29.775 6.15544 27.7125 0.111916 20.3125 0.111916C12.9125 0.111916 10.8625 6.143 11.05 8.45596C11.2 10.3088 11.2875 11.1171 11.3875 12.0249C11.475 12.9326 10.7625 13.0694 11.1875 14.972C11.9875 18.5907 12.2875 17.086 12.6625 19.3492C13.6125 25.0819 15.1 23.1171 15.1 26.1389C15.1 30.8145 15.5125 30.4663 8.825 32.9907C2.0375 35.5648 0.4375 37.144 0.25 38.3254C0 39.83 0 47.8756 0 47.8756H20.3125H40.625Z" fill="black" fill-opacity="0.54"/>
</svg>
