<svg width="186" height="37" viewBox="0 0 186 37" fill="none" xmlns="http://www.w3.org/2000/svg">
<path d="M14.8242 28H0.515625V2.30078H14.8242V4.9375H3.50391V13.252H14.1738V15.8535H3.50391V25.3633H14.8242V28ZM29.2031 8.38281C31.4883 8.38281 33.2168 8.94531 34.3887 10.0703C35.5605 11.1836 36.1465 12.9766 36.1465 15.4492V28H33.2637V15.6426C33.2637 14.0371 32.8945 12.8359 32.1562 12.0391C31.4297 11.2422 30.3105 10.8438 28.7988 10.8438C26.666 10.8438 25.166 11.4473 24.2988 12.6543C23.4316 13.8613 22.998 15.6133 22.998 17.9102V28H20.0801V8.73438H22.4355L22.875 11.5117H23.0332C23.4434 10.832 23.9648 10.2637 24.5977 9.80664C25.2305 9.33789 25.9395 8.98633 26.7246 8.75195C27.5098 8.50586 28.3359 8.38281 29.2031 8.38281ZM47.5371 36.6484C45.0059 36.6484 43.0547 36.1738 41.6836 35.2246C40.3125 34.2871 39.627 32.9688 39.627 31.2695C39.627 30.0625 40.0078 29.0312 40.7695 28.1758C41.543 27.3203 42.6094 26.752 43.9688 26.4707C43.4648 26.2363 43.0312 25.8848 42.668 25.416C42.3164 24.9473 42.1406 24.4082 42.1406 23.7988C42.1406 23.0957 42.334 22.4805 42.7207 21.9531C43.1191 21.4141 43.7227 20.8984 44.5312 20.4062C43.5234 19.9961 42.7031 19.3047 42.0703 18.332C41.4492 17.3477 41.1387 16.2051 41.1387 14.9043C41.1387 13.5215 41.4258 12.3438 42 11.3711C42.5742 10.3867 43.4062 9.63672 44.4961 9.12109C45.5859 8.60547 46.9043 8.34766 48.4512 8.34766C48.791 8.34766 49.1309 8.36523 49.4707 8.40039C49.8223 8.42383 50.1562 8.46484 50.4727 8.52344C50.7891 8.57031 51.0645 8.62891 51.2988 8.69922H57.9082V10.5801L54.3574 11.0195C54.709 11.4766 55.002 12.0273 55.2363 12.6719C55.4707 13.3164 55.5879 14.0312 55.5879 14.8164C55.5879 16.7383 54.9375 18.2676 53.6367 19.4043C52.3359 20.5293 50.5488 21.0918 48.2754 21.0918C47.7363 21.0918 47.1855 21.0449 46.623 20.9512C46.0488 21.2676 45.6094 21.6191 45.3047 22.0059C45.0117 22.3926 44.8652 22.8379 44.8652 23.3418C44.8652 23.7168 44.9766 24.0156 45.1992 24.2383C45.4336 24.4609 45.7676 24.625 46.2012 24.7305C46.6348 24.8242 47.1562 24.8711 47.7656 24.8711H51.1582C53.2559 24.8711 54.8613 25.3105 55.9746 26.1895C57.0996 27.0684 57.6621 28.3516 57.6621 30.0391C57.6621 32.1719 56.7949 33.8066 55.0605 34.9434C53.3262 36.0801 50.8184 36.6484 47.5371 36.6484ZM47.625 34.3633C49.2188 34.3633 50.5371 34.1992 51.5801 33.8711C52.6348 33.5547 53.4199 33.0918 53.9355 32.4824C54.4629 31.8848 54.7266 31.1699 54.7266 30.3379C54.7266 29.5645 54.5508 28.9785 54.1992 28.5801C53.8477 28.1934 53.332 27.9355 52.6523 27.8066C51.9727 27.666 51.1406 27.5957 50.1562 27.5957H46.8164C45.9492 27.5957 45.1934 27.7305 44.5488 28C43.9043 28.2695 43.4062 28.668 43.0547 29.1953C42.7148 29.7227 42.5449 30.3789 42.5449 31.1641C42.5449 32.207 42.9844 32.998 43.8633 33.5371C44.7422 34.0879 45.9961 34.3633 47.625 34.3633ZM48.3809 18.9648C49.7754 18.9648 50.8242 18.6133 51.5273 17.9102C52.2305 17.207 52.582 16.1816 52.582 14.834C52.582 13.3926 52.2246 12.3145 51.5098 11.5996C50.7949 10.873 49.7402 10.5098 48.3457 10.5098C47.0098 10.5098 45.9785 10.8848 45.252 11.6348C44.5371 12.373 44.1797 13.457 44.1797 14.8867C44.1797 16.1992 44.543 17.207 45.2695 17.9102C45.9961 18.6133 47.0332 18.9648 48.3809 18.9648ZM64.6406 28H61.7051V0.648438H64.6406V28ZM73.7285 8.73438V28H70.8105V8.73438H73.7285ZM72.3047 1.52734C72.7852 1.52734 73.1953 1.68555 73.5352 2.00195C73.8867 2.30664 74.0625 2.78711 74.0625 3.44336C74.0625 4.08789 73.8867 4.56836 73.5352 4.88477C73.1953 5.20117 72.7852 5.35938 72.3047 5.35938C71.8008 5.35938 71.3789 5.20117 71.0391 4.88477C70.7109 4.56836 70.5469 4.08789 70.5469 3.44336C70.5469 2.78711 70.7109 2.30664 71.0391 2.00195C71.3789 1.68555 71.8008 1.52734 72.3047 1.52734ZM92.3789 22.7266C92.3789 23.957 92.0684 24.9941 91.4473 25.8379C90.8379 26.6699 89.959 27.2969 88.8105 27.7188C87.6738 28.1406 86.3145 28.3516 84.7324 28.3516C83.3848 28.3516 82.2188 28.2461 81.2344 28.0352C80.25 27.8242 79.3887 27.5254 78.6504 27.1387V24.4492C79.4355 24.8359 80.373 25.1875 81.4629 25.5039C82.5527 25.8203 83.666 25.9785 84.8027 25.9785C86.4668 25.9785 87.6738 25.709 88.4238 25.1699C89.1738 24.6309 89.5488 23.8984 89.5488 22.9727C89.5488 22.4453 89.3965 21.9824 89.0918 21.584C88.7988 21.1738 88.3008 20.7812 87.5977 20.4062C86.8945 20.0195 85.9219 19.5977 84.6797 19.1406C83.4492 18.6719 82.3828 18.209 81.4805 17.752C80.5898 17.2832 79.8984 16.7148 79.4062 16.0469C78.9258 15.3789 78.6855 14.5117 78.6855 13.4453C78.6855 11.8164 79.3418 10.5684 80.6543 9.70117C81.9785 8.82227 83.7129 8.38281 85.8574 8.38281C87.0176 8.38281 88.1016 8.5 89.1094 8.73438C90.1289 8.95703 91.0781 9.26172 91.957 9.64844L90.9727 11.9863C90.1758 11.6465 89.3262 11.3594 88.4238 11.125C87.5215 10.8906 86.6016 10.7734 85.6641 10.7734C84.3164 10.7734 83.2793 10.9961 82.5527 11.4414C81.8379 11.8867 81.4805 12.4961 81.4805 13.2695C81.4805 13.8672 81.6445 14.3594 81.9727 14.7461C82.3125 15.1328 82.8516 15.4961 83.5898 15.8359C84.3281 16.1758 85.3008 16.5742 86.5078 17.0312C87.7148 17.4766 88.7578 17.9395 89.6367 18.4199C90.5156 18.8887 91.1895 19.4629 91.6582 20.1426C92.1387 20.8105 92.3789 21.6719 92.3789 22.7266ZM99.9902 0.648438V8.82227C99.9902 9.29102 99.9785 9.76562 99.9551 10.2461C99.9316 10.7148 99.8906 11.1484 99.832 11.5469H100.025C100.424 10.8672 100.928 10.2988 101.537 9.8418C102.158 9.37305 102.861 9.02148 103.646 8.78711C104.432 8.54102 105.264 8.41797 106.143 8.41797C107.689 8.41797 108.979 8.66406 110.01 9.15625C111.053 9.64844 111.832 10.4102 112.348 11.4414C112.875 12.4727 113.139 13.8086 113.139 15.4492V28H110.256V15.6426C110.256 14.0371 109.887 12.8359 109.148 12.0391C108.422 11.2422 107.303 10.8438 105.791 10.8438C104.361 10.8438 103.219 11.1191 102.363 11.6699C101.52 12.209 100.91 13.0059 100.535 14.0605C100.172 15.1152 99.9902 16.4043 99.9902 17.9277V28H97.0723V0.648438H99.9902ZM126.867 19.6328V17.0312H135.586V19.6328H126.867ZM164.203 28H149.895V2.30078H164.203V4.9375H152.883V13.252H163.553V15.8535H152.883V25.3633H164.203V28ZM178.582 8.38281C180.867 8.38281 182.596 8.94531 183.768 10.0703C184.939 11.1836 185.525 12.9766 185.525 15.4492V28H182.643V15.6426C182.643 14.0371 182.273 12.8359 181.535 12.0391C180.809 11.2422 179.689 10.8438 178.178 10.8438C176.045 10.8438 174.545 11.4473 173.678 12.6543C172.811 13.8613 172.377 15.6133 172.377 17.9102V28H169.459V8.73438H171.814L172.254 11.5117H172.412C172.822 10.832 173.344 10.2637 173.977 9.80664C174.609 9.33789 175.318 8.98633 176.104 8.75195C176.889 8.50586 177.715 8.38281 178.582 8.38281Z" fill="white"/>
</svg>
